<svg xmlns="http://www.w3.org/2000/svg" width="446" height="107" viewBox="0 0 446 107" fill="none">
<path fill-rule="evenodd" clip-rule="evenodd" d="M298.197 65.0744C296.608 66.5615 297.064 66.39 293.374 65.3034C290.139 64.2735 291.672 63.9304 288.779 65.5891C286.167 67.1342 281.911 68.6794 279.924 69.8802C280.663 71.5401 287.018 76.9753 288.551 79.2066C287.982 79.4923 287.529 79.7218 286.905 80.0082C285.94 80.4654 286.167 80.4654 285.032 79.7792C282.535 78.3482 274.533 73.7714 272.944 73.084C270.845 73.9997 265.282 76.8611 263.354 76.7463C262.445 76.6896 260.969 76.4606 261.256 75.3159C261.992 72.5126 266.986 70.9668 270.222 69.5364C271.525 68.965 271.185 69.0225 271.469 67.5908C271.811 66.0463 273.967 54.8316 274.478 54.2602C274.705 54.0887 276.464 53.3451 276.803 53.173C276.974 54.2035 277.087 55.3475 277.144 56.4342L277.711 62.7851C277.711 63.815 277.882 65.0164 278.053 65.9889C279.528 65.2453 281.003 64.6159 282.536 63.8724C290.139 60.21 288.779 62.6709 290.536 58.5513C291.56 56.2626 291.56 54.889 293.772 55.2334C293.374 59.8102 294.621 62.6716 298.197 65.0744ZM233.617 20.7317C235.661 21.3617 235.205 21.4185 238.043 18.7873C240.541 16.498 239.008 16.8417 242.357 17.128C245.306 17.3563 249.847 16.9565 252.174 17.1848C252.23 18.9589 248.77 26.626 248.315 29.3139C248.94 29.3139 249.45 29.3139 250.13 29.3139C251.21 29.3139 250.983 29.4293 251.776 28.3427C253.422 25.9385 258.643 18.3288 259.835 17.0706C262.163 17.0139 268.349 17.128 270.051 16.2697C270.845 15.8125 272.094 14.8967 271.355 13.981C269.482 11.8064 264.318 12.5506 260.8 12.6654C259.382 12.6654 259.722 12.608 258.812 11.464C257.848 10.2051 251.153 0.9935 250.47 0.707168C250.187 0.650418 248.258 0.707168 247.917 0.707168C248.144 1.73706 248.543 2.7676 248.94 3.79684L251.153 9.80401C251.55 10.7198 251.947 11.9205 252.23 12.8369C250.586 12.7795 248.94 12.8369 247.237 12.8369C238.838 12.8369 241.165 14.4962 237.759 11.5214C235.888 9.8614 235.32 8.65997 233.446 9.9188C235.718 13.8662 235.83 17.0132 233.617 20.7317ZM232.709 14.8967C233.561 14.7826 233.844 16.0981 232.878 16.2697L231.518 16.4412C230.665 16.6134 230.325 15.2398 231.289 15.0683L232.709 14.8967ZM112.174 106.442C111.719 107.357 110.47 106.67 110.868 105.87L111.209 105.125C111.663 104.268 112.911 104.954 112.458 105.755L112.174 106.442ZM114.33 101.921C113.876 102.779 112.627 102.15 113.081 101.292L113.706 100.033C114.102 99.1743 115.352 99.8599 114.954 100.661L114.33 101.921ZM116.883 96.8863C116.487 97.6866 115.181 97.1152 115.635 96.2562L116.315 94.998C116.713 94.1971 117.961 94.7691 117.565 95.6848L116.883 96.8863ZM119.608 91.9658C119.097 92.8241 117.905 92.0225 118.359 91.2789L119.097 90.0201C119.608 89.1618 120.743 89.9634 120.288 90.7069L119.608 91.9658ZM122.444 87.102C121.935 87.9036 120.743 87.16 121.253 86.3591L121.991 85.1576C122.444 84.356 123.693 85.1009 123.183 85.9006L122.444 87.102ZM125.452 82.2963C124.999 83.0398 123.749 82.353 124.26 81.552L125.055 80.3506C125.508 79.6084 126.757 80.2939 126.19 81.1529L125.452 82.2963ZM128.573 77.6621C128.007 78.405 126.927 77.5479 127.439 76.8037L128.233 75.6603C128.801 74.9161 129.935 75.7745 129.368 76.5187L128.573 77.6621ZM131.865 73.084C131.298 73.8282 130.221 72.9698 130.787 72.2269L131.639 71.0829C132.205 70.3387 133.283 71.2544 132.716 71.9406L131.865 73.084ZM135.157 68.7935C134.646 69.0798 134.022 68.6213 134.079 68.05C134.022 67.7062 134.305 67.249 134.703 67.1916L135.157 66.6189C135.725 65.9328 136.859 66.7918 136.234 67.534L136.121 67.7062L136.348 67.763C137.256 68.1073 136.689 69.4229 135.838 69.0798L135.157 68.7935ZM138.959 64.3302C138.278 65.017 137.313 64.0445 137.938 63.3571L138.846 62.3272C139.526 61.5836 140.491 62.6142 139.868 63.2423L138.959 64.3302ZM142.761 60.1539C142.137 60.8407 141.059 59.8676 141.739 59.1808L142.704 58.1509C143.329 57.4654 144.349 58.4379 143.725 59.1234L142.761 60.1539ZM146.677 56.1491C145.938 56.7779 145.031 55.6906 145.712 55.1192L146.677 54.1461C147.415 53.4593 148.323 54.5459 147.698 55.176L146.677 56.1491ZM150.762 52.2585C150.081 52.8873 149.116 51.858 149.797 51.2286L150.876 50.2561C151.557 49.6267 152.522 50.7133 151.784 51.3428L150.762 52.2585ZM154.962 48.5955C154.337 49.1682 153.373 48.1383 154.11 47.5095L155.189 46.5938C155.984 45.9637 156.779 47.1658 156.04 47.6811L154.962 48.5955ZM159.389 45.0486C158.594 45.6213 157.8 44.4772 158.538 43.962L159.616 43.1036C160.411 42.5322 161.205 43.6763 160.468 44.1909L159.389 45.0486ZM163.871 41.73C163.191 42.2453 162.282 41.1586 163.077 40.586C163.475 40.3003 163.871 40.0133 164.269 39.7844C164.95 39.2704 165.858 40.357 165.063 40.929C164.666 41.216 164.269 41.4443 163.871 41.73ZM168.525 38.5836C167.731 39.0988 167.049 37.8394 167.788 37.3821L168.979 36.6379C169.774 36.124 170.512 37.3821 169.717 37.8394L168.525 38.5836ZM173.292 35.6654C172.555 36.124 171.76 34.9225 172.612 34.4066L173.86 33.7211C174.597 33.2626 175.392 34.464 174.541 34.9793L173.292 35.6654ZM178.23 32.9195C177.321 33.3767 176.755 32.0611 177.549 31.6607L178.797 30.9739C179.649 30.5734 180.273 31.889 179.478 32.2894L178.23 32.9195ZM183.224 30.4025C182.428 30.8023 181.748 29.5435 182.599 29.0856C183.053 28.9141 183.45 28.6851 183.904 28.5136C184.698 28.1125 185.323 29.3713 184.472 29.7724C184.074 30.0007 183.621 30.1729 183.224 30.4025ZM188.33 28.0557C187.423 28.4001 186.969 27.0832 187.763 26.7395L189.068 26.1681C189.976 25.8238 190.429 27.1967 189.579 27.4837L188.33 28.0557ZM193.495 25.9385C192.643 26.2823 192.133 24.966 192.984 24.6223L194.346 24.1083C195.14 23.7646 195.708 25.0802 194.8 25.4246L193.495 25.9385ZM198.772 23.9942C197.921 24.2792 197.411 22.963 198.319 22.6773C198.772 22.5058 199.226 22.3343 199.68 22.2201C200.475 21.877 200.985 23.1926 200.078 23.5363C199.624 23.7072 199.227 23.8214 198.772 23.9942ZM204.107 22.2775C203.142 22.5058 202.858 21.1335 203.71 20.9045L205.071 20.5028C205.98 20.2745 206.321 21.6468 205.414 21.877L204.107 22.2775ZM209.498 20.7317C208.591 20.9613 208.25 19.5883 209.157 19.3594L210.519 19.0156C211.37 18.7873 211.767 20.1603 210.859 20.3886L209.498 20.7317ZM214.947 19.4161C214.093 19.6444 213.641 18.2721 214.606 17.9864L216.024 17.7007C216.99 17.5279 217.159 18.9589 216.307 19.073L214.947 19.4161ZM220.393 18.2147C219.486 18.3862 219.259 17.0133 220.167 16.8417L221.529 16.6134C222.493 16.4412 222.72 17.8148 221.813 17.9864L220.393 18.2147ZM225.955 17.2422C225.048 17.4137 224.763 16.0408 225.729 15.8692L227.092 15.6409C228 15.4694 228.283 16.8997 227.318 17.0713L225.955 17.2422ZM36.9807 72.6268C35.3913 74.1145 35.846 73.9423 32.1566 72.7983C28.9213 71.8258 30.4533 71.426 27.5602 73.1427C24.9492 74.6298 20.6924 76.2317 18.707 77.4338C19.4445 79.0924 25.8005 84.5276 27.3325 86.7589C26.7645 87.0446 26.311 87.2174 25.6867 87.5031C24.7215 88.0177 24.9492 88.0177 23.8138 87.3316C21.3167 85.9006 13.3148 81.2664 11.726 80.637C9.6267 81.5521 4.06506 84.4134 2.13528 84.2993C1.227 84.2419 -0.24928 83.9562 0.0359981 82.8109C0.772859 80.0075 5.76714 78.4624 9.00114 77.0327C10.3066 76.4613 9.96635 76.5748 10.2497 75.1444C10.5919 73.5431 12.7475 62.3852 13.2586 61.8132C13.4287 61.6423 15.244 60.8407 15.5843 60.7266C15.7557 61.7565 15.8696 62.8438 15.9258 63.9304L16.4926 70.3387C16.4926 71.3112 16.6627 72.57 16.8348 73.4851C18.3098 72.7983 19.7848 72.1115 21.3167 71.4253C28.9213 67.7623 27.5033 70.2239 29.3179 66.1043C30.34 63.8162 30.2825 62.4433 32.5532 62.7857C32.1572 67.3625 33.4052 70.2239 36.9807 72.6268ZM35.335 66.9627C34.4836 67.2484 34.8245 68.5639 35.7885 68.335L37.0946 67.8778C37.8884 67.6488 37.605 66.2752 36.6405 66.5042L35.335 66.9627ZM183.167 97.7433C183.904 98.374 184.699 97.2294 184.017 96.6573L183.45 96.1988C182.655 95.5688 181.861 96.7147 182.543 97.2861L183.167 97.7433ZM179.251 94.5982C179.989 95.1696 180.839 94.0829 180.159 93.5103L179.025 92.5952C178.286 92.0225 177.435 93.1665 178.173 93.7392L179.251 94.5982ZM174.825 91.1642C175.505 91.7368 176.413 90.6502 175.675 90.0201L174.541 89.1618C173.803 88.6478 172.896 89.7344 173.69 90.3071L174.825 91.1642ZM170.284 87.8455C171.079 88.4189 171.817 87.16 171.079 86.7022L169.888 85.9006C169.092 85.3292 168.356 86.5874 169.092 87.0446L170.284 87.8455ZM165.631 84.6991C166.426 85.2144 167.163 84.013 166.426 83.4977L165.235 82.7535C164.44 82.2395 163.645 83.3835 164.44 83.8988L165.631 84.6991ZM160.922 81.6662C161.659 82.1247 162.454 80.9807 161.602 80.4654L160.411 79.7218C159.673 79.264 158.879 80.408 159.673 80.9239L160.922 81.6662ZM156.04 78.8067C156.949 79.264 157.516 78.0058 156.779 77.5479L155.529 76.8611C154.679 76.4026 154.055 77.6621 154.849 78.1199L156.04 78.8067ZM151.16 76.1169C152.01 76.518 152.579 75.2579 151.784 74.8587L150.536 74.1719C149.684 73.7714 149.06 75.0303 149.912 75.4314L151.16 76.1169ZM146.11 73.5992C146.96 73.9997 147.585 72.7409 146.733 72.2837L145.485 71.711C144.69 71.3105 144.01 72.5126 144.86 72.9698L146.11 73.5992ZM141.059 71.2538C141.966 71.5969 142.42 70.2813 141.569 69.9369L140.263 69.3655C139.412 69.0224 138.902 70.338 139.753 70.6811L141.059 71.2538ZM130.616 67.1342C131.582 67.4199 131.865 66.0469 131.071 65.8186L129.709 65.3601C128.744 65.0744 128.461 66.4474 129.255 66.6757L130.616 67.1342ZM125.283 65.4169C126.134 65.7032 126.531 64.3302 125.679 64.0445L124.317 63.6441C123.409 63.4145 123.012 64.7887 123.92 65.017L125.283 65.4169ZM119.891 63.9304C120.685 64.1593 121.197 62.8438 120.231 62.5574L118.87 62.213C117.848 61.9848 117.678 63.4145 118.53 63.586L119.891 63.9304ZM114.443 62.6148C115.352 62.7864 115.578 61.4121 114.727 61.2405L113.309 60.9549C112.4 60.7833 112.116 62.1563 113.024 62.3278L114.443 62.6148ZM108.939 61.5843C109.789 61.7565 110.13 60.3828 109.166 60.1539C108.711 60.0965 108.2 59.9824 107.746 59.9256C106.896 59.7541 106.555 61.1264 107.52 61.3553C107.974 61.4121 108.485 61.4701 108.939 61.5843ZM103.376 60.7259C104.341 60.8401 104.455 59.4103 103.547 59.3529L102.185 59.1808C101.221 59.0666 101.107 60.4976 102.015 60.5544L103.376 60.7259ZM97.8153 60.1539C98.7235 60.2107 98.8943 58.8377 97.9291 58.7235L96.5104 58.6094C95.6597 58.4952 95.4326 59.9256 96.4541 60.0391L97.8153 60.1539ZM92.2543 59.7534C93.2195 59.8102 93.1619 58.3805 92.3112 58.3805L90.8912 58.3231C89.9279 58.2663 89.9279 59.696 90.8356 59.696L92.2543 59.7534ZM86.6357 59.6386C87.5434 59.6386 87.6003 58.2089 86.6357 58.2089C86.1822 58.2089 85.6718 58.2089 85.217 58.2089C84.365 58.2089 84.2524 59.6386 85.217 59.6386C85.7281 59.6386 86.1822 59.6386 86.6357 59.6386ZM81.0171 59.7534C82.0393 59.6386 81.8691 58.2663 80.9615 58.3231L79.5997 58.3805C78.6345 58.4372 78.7484 59.8676 79.6566 59.8102L81.0171 59.7534ZM75.4561 60.0391C76.3638 59.9824 76.2506 58.552 75.3429 58.6094L73.9236 58.7235C73.0166 58.7803 73.1304 60.2107 74.0381 60.1539L75.4561 60.0391ZM69.8958 60.5544C70.7459 60.4976 70.6896 59.066 69.7244 59.1808C69.2709 59.2382 68.7604 59.2949 68.3063 59.3529C67.4543 59.4103 67.5119 60.8407 68.4764 60.7259C68.9306 60.6692 69.3841 60.6118 69.8958 60.5544ZM64.3329 61.2979C65.2974 61.1264 64.9578 59.7534 64.1064 59.9256L62.6877 60.0965C61.7801 60.3261 62.0634 61.6991 62.9142 61.5282L64.3329 61.2979ZM58.7719 62.2704C59.6802 62.0995 59.4537 60.6692 58.5454 60.8407L57.1274 61.1264C56.2754 61.2979 56.5018 62.6716 57.4107 62.5L58.7719 62.2704ZM53.3241 63.3571C54.1755 63.2429 53.9497 61.8126 52.9844 61.9848L51.622 62.3278C50.6568 62.5574 51.1116 63.9304 51.9629 63.7015L53.3241 63.3571ZM47.8763 64.7313C48.7846 64.4444 48.3867 63.072 47.4797 63.3577L46.1167 63.7021C45.209 63.9304 45.6069 65.3034 46.5152 65.0751L47.8763 64.7313ZM42.4292 66.2185C43.3368 65.9895 42.9959 64.5585 42.0307 64.8455L40.7252 65.246C39.8738 65.4749 40.1585 66.8479 41.1237 66.6189L42.4292 66.2185ZM296.551 59.4103C295.701 59.6967 296.041 61.0116 297.005 60.7833L298.311 60.3261C299.104 60.0965 298.879 58.7235 297.857 59.0092L296.551 59.4103ZM444.384 90.2497C445.121 90.8217 445.973 89.677 445.234 89.1618L444.668 88.6478C443.874 88.0177 443.079 89.2192 443.76 89.7351L444.384 90.2497ZM440.468 87.102C441.207 87.6746 442.057 86.53 441.378 85.9586L440.242 85.1002C439.504 84.5276 438.652 85.6142 439.391 86.1869L440.468 87.102ZM436.042 83.6125C436.722 84.1845 437.631 83.0979 436.892 82.5252L435.758 81.6668C435.021 81.0955 434.112 82.1828 434.907 82.8115L436.042 83.6125ZM431.501 80.3506C432.295 80.8665 433.035 79.6651 432.295 79.1498L431.162 78.3482C430.309 77.8342 429.573 79.0357 430.367 79.5509L431.501 80.3506ZM426.849 77.1468C427.642 77.6621 428.38 76.4613 427.642 75.9454L426.453 75.2018C425.657 74.6872 424.919 75.8886 425.657 76.4026L426.849 77.1468ZM422.137 74.1145C422.876 74.6291 423.67 73.4851 422.876 72.9131L421.627 72.1695C420.946 71.7117 420.096 72.8557 420.946 73.4284L422.137 74.1145ZM417.314 71.2538C418.167 71.711 418.733 70.4522 417.996 70.0523L416.746 69.3081C415.896 68.9083 415.271 70.1665 416.066 70.567L417.314 71.2538ZM412.378 68.5639C413.228 68.9651 413.854 67.7623 413.002 67.3051L411.754 66.6757C410.902 66.2185 410.336 67.534 411.129 67.9358L412.378 68.5639ZM407.325 66.0469C408.178 66.4474 408.802 65.1886 407.951 64.7887L406.701 64.1587C405.908 63.7582 405.227 65.017 406.077 65.4169L407.325 66.0469ZM402.276 63.7015C403.185 64.0445 403.639 62.7283 402.787 62.3846L401.539 61.8126C400.63 61.4701 400.119 62.8431 400.971 63.1288L402.276 63.7015ZM397.056 61.5843C397.906 61.9274 398.473 60.6118 397.566 60.2107L396.26 59.7534C395.41 59.4103 394.899 60.7259 395.75 61.069L397.056 61.5843ZM391.834 59.6386C392.799 59.925 393.083 58.4946 392.287 58.2663L390.926 57.8078C389.96 57.5221 389.677 58.8944 390.473 59.1808L391.834 59.6386ZM386.5 57.8645C387.408 58.1502 387.748 56.7779 386.897 56.549L385.534 56.1485C384.627 55.8615 384.23 57.2351 385.138 57.4641L386.5 57.8645ZM381.108 56.3781C381.904 56.6064 382.414 55.2908 381.448 55.0038L380.088 54.6614C379.065 54.4331 378.895 55.8628 379.747 56.035L381.108 56.3781ZM375.662 55.1199C376.569 55.2908 376.794 53.8598 375.944 53.6882L374.524 53.4025C373.617 53.231 373.389 54.604 374.298 54.7749L375.662 55.1199ZM370.156 54.0326C371.006 54.2041 371.349 52.8299 370.382 52.659C369.929 52.5442 369.475 52.4874 368.963 52.3726C368.169 52.2585 367.773 53.6315 368.736 53.803C369.249 53.8598 369.702 53.9752 370.156 54.0326ZM364.593 53.1736C365.561 53.2877 365.673 51.9148 364.764 51.8013L363.404 51.6284C362.438 51.5143 362.323 52.9453 363.233 53.0027L364.593 53.1736ZM359.033 52.6009C359.94 52.7157 360.11 51.286 359.147 51.1712L357.728 51.0571C356.878 50.9997 356.65 52.3727 357.671 52.4868L359.033 52.6009ZM353.471 52.2585C354.437 52.2585 354.38 50.8281 353.528 50.8281L352.108 50.7701C351.145 50.7701 351.145 52.1437 352.052 52.2018L353.471 52.2585ZM347.852 52.087C348.761 52.087 348.819 50.7133 347.852 50.6559C347.399 50.6559 346.888 50.6559 346.435 50.6559C345.582 50.6559 345.47 52.087 346.435 52.087C346.945 52.087 347.399 52.087 347.852 52.087ZM342.236 52.2011C343.257 52.1437 343.086 50.7127 342.179 50.7694L340.816 50.8275C339.852 50.8849 339.966 52.3146 340.873 52.2579L342.236 52.2011ZM336.673 52.4868C337.583 52.43 337.526 50.9997 336.56 51.1138L335.139 51.228C334.232 51.2854 334.346 52.6583 335.254 52.6003L336.673 52.4868ZM331.113 53.0595C331.963 52.9453 331.907 51.5143 330.942 51.6284C330.487 51.6858 329.978 51.7432 329.524 51.8013C328.671 51.858 328.728 53.2884 329.695 53.1736C330.148 53.1168 330.601 53.0595 331.113 53.0595ZM325.551 53.7456C326.515 53.5741 326.175 52.2011 325.325 52.3726L323.906 52.6009C322.999 52.7725 323.281 54.1467 324.132 53.9752L325.551 53.7456ZM319.988 54.7181C320.898 54.5466 320.67 53.1736 319.762 53.3458L318.345 53.5741C317.492 53.7456 317.719 55.1766 318.628 55.0038L319.988 54.7181ZM314.542 55.8628C315.393 55.6913 315.166 54.2609 314.202 54.4898L312.839 54.7755C311.876 55.0625 312.329 56.3781 313.18 56.1498L314.542 55.8628ZM309.093 57.1777C310.002 56.8927 309.603 55.5771 308.753 55.8054L307.334 56.1491C306.426 56.4348 306.823 57.7504 307.732 57.5221L309.093 57.1777ZM303.703 58.6661C304.553 58.4379 304.213 57.0636 303.304 57.2938L301.943 57.6936C301.091 57.9226 301.376 59.3529 302.34 59.0666L303.703 58.6661Z" fill="#737373"/>
</svg>